<?xml version="1.0" encoding="utf-8"?>
<!-- Generator: Adobe Illustrator 22.1.0, SVG Export Plug-In . SVG Version: 6.00 Build 0)  -->
<svg version="1.1" id="图层_1" xmlns="http://www.w3.org/2000/svg" xmlns:xlink="http://www.w3.org/1999/xlink" x="0px" y="0px"
	 viewBox="0 0 539 538" style="enable-background:new 0 0 539 538;" xml:space="preserve">
<style type="text/css">
	.st0{fill:#FFFFFF;}
</style>
<g>
	<path class="st0" d="M0,288c0-12,0-24,0-36c0.3-0.9,0.6-1.8,0.8-2.8c2.7-16.7,4.1-33.8,8.1-50.1c14-56.2,45.5-101.6,89.4-138.6
		C135.6,29,178.5,9.8,226.8,2.9c8-1.1,16.1-2,24.2-2.9c12.3,0,24.7,0,37,0c9,1.1,18.1,2,27,3.4c61.1,9.6,111.8,38.4,153.4,83.6
		c35.8,38.8,58.8,84,66.7,136.5c1.4,9.2,2.5,18.4,3.8,27.6c0,12,0,24,0,36c-0.3,1.9-0.8,3.9-1,5.8c-1.6,22.5-6.2,44.4-13.4,65.8
		c-14.6,43.1-40.1,79-73.4,109.6c-38,35-82.3,57.8-133.6,65.9c-8.8,1.4-17.7,2.6-26.6,3.8c-15,0-30,0-45,0c-1.4-0.3-2.9-0.8-4.3-1
		c-20.6-1.9-40.8-6.1-60.4-12.7C139.4,510.2,104,486,73.6,454.2c-38.7-40.5-63-88.3-70.7-144.1C1.9,302.8,1,295.4,0,288z M271,526.3
		c139.8,2.1,260.1-117.5,256.4-263.2C524.1,128.5,410.3,10.6,264.9,13.3c-132.5,2.5-251,112.7-251.1,256.8
		C13.6,412.9,132.1,528.9,271,526.3z"/>
	<path class="st0" d="M269.4,89.8c99.4-3.1,183.2,81.4,183,181.8c-0.3,99.4-83.5,181.3-181.9,181c-101.7-0.3-182.2-83.7-181.9-181.8
		C88.9,168.5,174.6,85.9,269.4,89.8z M272.2,103.7c-92.6-2.1-168.7,74.6-169.5,165.8c-0.8,91.7,73.9,169.5,167.8,169.4
		c94.6-0.1,169.1-78.8,167.6-170.5C436.6,174.1,357.8,102.4,272.2,103.7z"/>
	<path class="st0" d="M215.3,489.8c-3.4-0.6-6.8-1.1-10.2-2c-5.6-1.5-10.5-4-13.9-9.1c-6-9-4.2-21.7,4.6-28.1
		c6.6-4.7,14.1-3.1,21.2-1.3c14.4,3.8,20,14.3,16.5,30.1c-1.1,5.2-2.8,10.3-4.6,15.2c-3.4,8.8-13.9,15.5-23.3,15.1
		c-12.1-0.5-21.9-7.2-25-17.3c-0.3-0.9-0.9-2.1-0.6-2.9c1.3-3,2.9-5.9,4.4-8.9c2,1.9,4.8,3.4,6,5.8c4.6,9.2,10.6,13.1,18.2,10.3
		c2.8-1,5-3.6,7.5-5.5C215.9,491,215.6,490.4,215.3,489.8z M212.5,477.1c5.9,0,10.3-3.5,10.4-8.3c0.1-3.9-8.4-10.4-13.7-10.5
		c-4-0.1-8.4,4.8-8.5,9.4C200.6,473.1,205.7,477.1,212.5,477.1z"/>
	<path class="st0" d="M325.2,492.9c0.3,15.1-9,27.3-21.5,26.8c-16.3-0.6-25.6-6.7-28.8-22.7c-1.7-8.6-3.4-17.4,0-26.1
		c3.2-8.1,8.6-13.8,17.7-14.9c10.2-1.2,19.2,0.1,25,10.2C322.4,474.6,325.1,483.4,325.2,492.9z M286.6,486.5
		c0.9,3.5,1.6,8.2,3.2,12.4c2.3,5.9,6.7,8.6,11.3,8c5.1-0.7,10.2-5.5,10.7-11.1c0.8-8.2-1.2-15.9-5.6-22.8c-2.3-3.6-6-5.3-10.4-4.6
		c-4.5,0.7-6.8,4-7.8,8.1C287.4,479.4,287.2,482.4,286.6,486.5z"/>
	<path class="st0" d="M363.6,471.5c-4.9-10.5-9.2-19.5-13.4-28.5c-1.3-2.8-0.9-4.7,2.2-6.3c8.3-4.2,16.4-8.8,24.5-13.3
		c4-2.3,7.1-0.8,9.5,2.5c2.5,3.5,1.7,6.8-1.6,9.1c-3,2.1-6.3,3.7-9.5,5.4c-3.4,1.8-6.8,3.3-10.6,5.2c1.1,2.9,2.1,5.7,3.5,9.4
		c3.4-2.4,6.5-4.2,9.1-6.5c9.5-8.3,22.6-6.3,29,4.6c5.4,9.3,4.6,21.5-2,29c-8.1,9.2-19.8,12.5-29.7,8c-3.3-1.5-7.7-2.8-6.1-8.1
		c1.5-4.6,4.8-5.9,10.6-4.2c8.4,2.4,12.3,0.9,17.2-6.4c2.9-4.3,2-9.7-2.1-13.5c-4-3.6-7.1-3.3-11.9,0.5
		C376.5,462.5,370.5,466.5,363.6,471.5z"/>
	<path class="st0" d="M97.2,110.4c3,2.6,5.9,5.2,8.9,7.8c3,2.7,6,5.3,8.8,8.2c4.7,4.9,9.2,9.9,18,8c-2.6,7.6-7.7,11.2-13,14.4
		c-0.6,0.4-2.7-0.6-3.1-1.4c-4.9-10.1-14.5-15.8-21.9-23.6c-4.4-4.7-8.7-10.3-16.2-10.8c-0.9-0.1-1.8-1.3-3.2-2.5
		c4.4-4.7,8.5-9.3,12.9-13.5c0.8-0.8,3.1-0.3,4.5,0c11,3,22,6.1,33.3,8.6c-7.3-6-10.5-17.1-22.8-16.7c-4.1,0.1-3.1-4.2-1.6-6
		c2.6-3.1,6-5.4,8.8-7.9c12.5,13.9,24.5,27.1,36.2,40.4c1.3,1.5,1.1,4.2,1.6,6.4c-2.1,0.1-4.4,0.8-6.3,0.2c-14.1-4-28-8.3-42-12.5
		c-0.6-0.2-1.3-0.2-1.9-0.3C97.8,109.6,97.5,110,97.2,110.4z"/>
	<path class="st0" d="M432.4,83.2c10.4,9.5,21.6,16.5,27.8,28.3c1.9,3.7,2.8,8.8,2.1,12.8c-1.4,8.1-9,12-17.7,10.2
		c-6.9-1.4-7.1-1.4-8.7,5.4c-1.2,4.8-2,9.7-2.6,14.7c-0.3,2.9-1.7,3.6-4.2,3.6c-7-0.2-11.3-7.7-7.9-14.2c1.6-3.1,3.5-6,5.1-9.1
		c2.4-4.8,2-9.3-2.1-14c-5.1,4-11.1,6.7-12.4,14.2c-0.2,1.4-1.3,3.2-2.5,3.8c-0.7,0.4-2.7-0.9-3.6-1.9c-3.1-3.3-6.2-6.6-8.8-10.2
		c-2.5-3.4-1.3-5.9,2.9-5.7c4.1,0.2,6.8-1.7,9.5-4.5c5.2-5.6,10.5-11.1,16.1-16.4c3.7-3.5,6.2-7.3,6.1-12.5
		C431.3,86.6,431.8,85.5,432.4,83.2z M452.1,115.8C452,112,445,104,441.7,104c-2.9,0-11.1,8.5-10.9,11.3c0.2,4.3,6.6,10.1,11,10
		C447.2,125.2,452.2,120.6,452.1,115.8z"/>
	<path class="st0" d="M472.4,172.7c0.7,6.5,1.3,11.5,1.7,16.5c0.6,8.4-4.1,13.8-12.6,14.8c-12.8,1.4-22.8-6.2-25.3-19.5
		c-0.6-3.1-0.9-6.3-0.7-9.4c0.1-3.1,0-5.1-3.6-6.4c-3.2-1.1-3.1-3.9-0.2-5.6c4.3-2.5,8.7-4.9,13.3-6.8c1.5-0.6,3.8,0.5,5.8,0.8
		c-0.5,1.8-0.4,4.1-1.5,5.2c-7,6.5-5.9,14.3-4,22.2c0.3,1.3,0.9,2.8,1.9,3.4c2.8,1.7,6,4.6,8.7,4.2c4.3-0.6,5.3-5,5-9.1
		c-0.5-6-1.5-11.9-1.8-17.9c-0.3-6.8,1.4-12.8,8.4-16.1c11.6-5.5,23.9,1.5,26.7,15.3c1.3,6.3,2.9,12.6,3.9,18.9
		c0.3,1.5-0.7,4.1-1.9,4.9c-2.7,1.8-5.9,2.9-9,4c-1.2,0.4-2.7-0.2-4.1-0.4c0.3-1.4,0-3.2,0.8-4.2c7.5-8.8,4.3-17.7,0.6-26.6
		c-1.2-3.1-3.7-5.5-6.9-4.3c-1.9,0.7-3.6,3.6-4.1,5.8C472.4,166.2,472.5,170.3,472.4,172.7z"/>
	<path class="st0" d="M21.1,240.6c1.4-10.8,2.7-22.4,4.7-34c1.1-6.6,5.7-9.8,12.8-10.5c12-1.2,23.5,1.1,34.8,4.9
		c7.6,2.5,12.8,10.2,12,18.8c-0.8,8.7-2.9,17.3-4.8,25.9c-0.4,1.8-1.9,3.4-2.4,4.3c-9.8-2.1-18.8-4.4-28-5.9
		C41,242.6,31.7,241.9,21.1,240.6z M74.6,237c0.9-3.2,1.8-5.9,2.3-8.6c1.7-9.1-0.2-13.6-8.7-17.1c-5.9-2.4-12.4-3.6-18.7-4.6
		c-12.8-2-15.2-0.1-17.7,12.8c-0.5,2.7-0.8,5.5-1.2,8.8C45.4,231.3,59.7,234.1,74.6,237z"/>
	<path class="st0" d="M225.7,35.6c0.9,8.2,1.9,16.4,2.6,24.6c0.5,6.3,1.7,12.1,7.4,16.1c-5,4.8-10.6,4.8-16,4.6
		c-0.8,0-2.4-3-2.1-4.1c3.4-10.4,0-20.5-1.2-30.6c-0.9-7.4-3.1-14.6-4.8-22.4c8.4-4.7,14.6-3.8,21.3,4.6c4.5,5.6,8.5,11.5,12.9,17.1
		c2,2.6,4.4,4.8,7.7,6.7c-0.8-7.8-1.1-15.7-2.5-23.4c-0.5-2.7-3.4-5-5.6-7.9c4.6-5.3,10.8-2.9,17.2-2.9c-6.6,12.4-1.3,24.7-1.4,37
		c0,5.2,0.8,10.3,0.7,15.4c0,1.8-1.6,3.6-2.5,5.3c-1.5-0.9-3.6-1.5-4.6-2.9c-7.7-10.9-15.2-21.9-22.8-32.8c-1.4-1.9-3.1-3.6-4.6-5.4
		C227,35,226.4,35.3,225.7,35.6z"/>
	<path class="st0" d="M351.8,94.6c12.3-11.9,20.8-25.2,27.3-39.8c1.9-4.3,2.9-5,6.8-2.6c9.5,6.1,19.1,12.1,28.6,18.3
		c5.8,3.8,5.3,9.1-1.4,12.8c-3.1-9.3-11.4-12.8-19-17.3c-2.3-1.3-3.6-1.1-5.6,0.7c-9,8.6-8.9,10.4,2.1,16.3c2.2,1.2,5,1.5,7.5,1.9
		c2.2,0.3,4.5,0.1,6.8,0.1c-0.1,7.4-4.1,13.1-10.5,15.1c-2.3-6.8-6.9-11.7-13.5-14.4c-1.6-0.6-4.7,0-5.9,1.2c-8.4,9-8,11.4,1.9,18.7
		c5,3.7,9.9,6.1,16.1,3.5c0.6-0.3,1.3-0.2,2-0.2c0.5,0,0.9,0.2,1.4,0.3c1.3,7-4.1,12-10.5,9.5c-3.5-1.4-6.8-3.5-10-5.7
		c-6.4-4.3-12.7-8.6-18.8-13.2C354.9,98.3,353.3,96.1,351.8,94.6z"/>
	<path class="st0" d="M50.4,324.8c4.1-6.3,8-7.7,15-6.4c1.2,6.7,2.3,12.9,3.5,19.1c0.6,3.3,3,4.6,5.8,3.5c5.9-2.2,13.7-1.2,16.8-8.9
		c0.2-0.5,3.6-0.7,3.9-0.1c2.7,5.6,5.1,11.3,8.1,18.4c-12.2-2.9-20.8,2.9-29.9,5.8c-9.2,2.9-19.5,3.9-26.9,12.8
		c-2.1-2.9-4.3-5.2-5.5-7.9c-3.8-9.2-7.3-18.5-10.6-27.9c-1.4-4-2.4-8.4,3.5-10.6c5.1-2,7.9-0.7,6.6,4.6c-1.8,7.8,1.3,14,4.5,20.4
		c0.2,0.5,0.3,1,0.7,1.3c4.5,3.8,8.2-0.5,12.2-1.5c2.3-0.6,6.1-1,4.5-5.5C60.1,334.7,58.8,327.2,50.4,324.8z"/>
	<path class="st0" d="M25.1,293.6c15.5-0.9,29.9-1.9,44.4-2.5c4.9-0.2,7.8-2.4,7.8-7c0-4-0.8-8.2-2.2-12c-0.6-1.6-3.6-3.1-5.5-3.1
		c-11.8,0.1-23.6,0.5-35.4,1.2c-1.5,0.1-2.8,2.4-4.3,3.5c-1.4,1-3.2,2.5-4.5,2.3c-1.2-0.2-2.5-2.5-2.8-4c-0.9-4.7-1.3-9.6,1.8-14.2
		c8.3,5.8,17.4,2.8,26.2,2.8c6,0,12-0.5,18-0.4c8.4,0.2,13.8,4,15.1,12.4c1.1,6.8,0.7,13.9-0.1,20.7c-0.6,5.2-4.4,8.3-10,8.8
		c-10.8,0.8-21.6,1.7-32.3,2.9c-3.5,0.4-7.1,1.5-10.4,2.8c-3.5,1.3-5.6,1-5.7-3.1C25,301,25.1,297.3,25.1,293.6z"/>
	<path class="st0" d="M108.2,166.1c-1.5-0.9-2.5-1.6-3.5-2.1c-8.4-4.5-10-4.2-15.3,3.4c-6,8.5-4.3,13.4,5.7,17
		c1.2,0.4,2.4,1,4.5,1.9c-3.7,5.3-7.2,10.3-10.5,15.1c-1.5-0.6-1.9-0.6-2.1-0.8c-11.5-16.3-23.1-32.6-34.6-49c-1-1.4-2-4.3-1.4-4.9
		c1.4-1.5,4-3,5.7-2.6c12.6,2.2,25.1,5,37.7,7.4c4.7,0.9,9.6,1.3,14.3,2.2c5.9,1.1,6.6,2.7,3.3,7.5
		C110.8,162.7,109.6,164.3,108.2,166.1z M78.9,158.1c-3.6-0.9-6.5-1.7-9.5-2.4c-0.2,0.3-0.4,0.6-0.6,0.9c2,2.2,4,4.5,6.2,6.9
		c0.9-1.1,1.5-1.7,1.9-2.3C77.5,160.4,78,159.6,78.9,158.1z"/>
	<path class="st0" d="M510.1,322.2c-1.7,6.9-3.4,13.8-5.4,21.8c-9.8-8.6-17.6-0.3-26.1,0c5.3,6,9.4,12.8,17.4,15.3
		c1.3,0.4,2.7,2.4,2.9,3.8c0.5,5.4-0.8,10.2-5.3,12.4c-8.3-9-15.6-18.4-24.3-26.2c-5.9-5.3-13.4-8.6-22-4.1c-4,2.1-5.9,0.7-5-3.6
		c1.1-5.7,2.6-11.3,4.3-16.9c0.5-1.5,2.2-2.8,3.7-3.5c0.6-0.3,2.3,1.4,3.1,2.5c1.5,2,2.2,5.7,3.9,6.3c5.3,1.7,11,3.1,16.4,2.9
		c6.7-0.4,13.5-2.1,20-4.1c5.1-1.6,9.9-4.4,14.8-6.6C509,322,509.5,322.1,510.1,322.2z"/>
	<path class="st0" d="M507.6,288.3c-13.8-0.5-27.5-1-41.3-1.3c-1.5,0-2.9,2.2-4.4,3.2c-1.5,1-3.4,2.9-4.8,2.6
		c-1.3-0.3-2.8-2.9-2.8-4.5c-0.1-5.6,0.2-11.3,0.7-16.9c0.1-1.6,1.4-3.1,2.5-5.5c8.2,10.1,19.3,7.1,29.2,8.4
		c4.6,0.6,9.3,1.4,13.9,1.1c2.6-0.1,6.1-1.6,7.3-3.7c1-1.6-0.4-5.3-1.7-7.4c-1.1-1.8-3.7-2.7-5.6-4.1c0.3-0.7,0.6-1.4,0.9-2
		c2.1-1.1,4.1-2.6,6.3-3.1c6.4-1.6,8.6,0.1,8.4,6.7c-0.5,12.5-1.3,24.9-1.8,37.4c-0.2,5.2-3.4,6.5-7.5,6.6c-1.5,0-3.5-0.7-4.2-1.8
		c-0.5-0.8,0.6-2.8,1.2-4.2c1.5-3.2,3.2-6.4,4.8-9.5C508.3,289.6,507.9,289,507.6,288.3z"/>
	<path class="st0" d="M139.4,435.7c-2.8-2.6-5.3-4.9-7.7-7.1c-2.9-2.7-1.7-5.4,0.2-8c1.8-2.5,4.1-3.3,6.8-1.4
		c4.5,3.2,8.8,1.6,13.2-0.4c5-2.3,7.4-1.3,11.9,3.4c3.4,3.6,0.6,6.2-1.1,8.7c-9.9,13.8-20,27.5-29.9,41.3c-2.5,3.5-4.9,4.5-8.7,1.8
		c-5.5-4-6.8-6.8-3.9-10.9C126.5,454,132.9,445.1,139.4,435.7z"/>
	<path class="st0" d="M147.7,47.9c6.5-2.2,12.5-4.3,18.4-6.3c0.6,1.2,0.9,1.6,0.8,1.8c-3.7,6.9-1.3,13.1,1.8,19.4
		c2.8,5.8,5.1,11.9,7.9,17.8c3.6,7.5,7.3,8.8,14.8,5.8c8.7-3.5,9.9-6.1,6.6-14.8c-2.8-7.5-5.5-15-8.8-22.2
		c-2.2-4.8-5.5-9.2-8.6-14.2c2.9-3.7,7.5-4.4,13.3-3.8c-2.3,8.7,2.4,15.6,4.9,23.1c2.3,7.1,4.9,14.1,6.8,21.3
		c2.2,8.3-0.4,12.9-8.3,16.2c-0.6,0.3-1.2,0.5-1.9,0.7c-15.1,6.1-24.9,3.8-30.7-13.2c-1.5-4.4-3.5-8.6-5.3-12.9
		c-2.1-5.2-3.8-10.7-8.9-14.1C149.5,51.6,149,50,147.7,47.9z"/>
	<path class="st0" d="M316.8,24.1c6.3,1.6,11.4,2.8,16.4,4.3c3.3,1,3.7,3.6,1.8,5.8c-3.4,3.8-3,8.2-3,12.7c0,5.3-0.2,10.7,0.1,16
		c0.1,2.3,1,4.6,1.6,6.8c0.5,0.1,1,0.2,1.5,0.3c3.9-5.1,7.8-10.2,11.7-15.3c3.9-5.2,8.3-10.1,7-17.6c6.4-0.7,11.5,0.4,15.9,5.5
		c-13,8.3-19.5,21.7-28.7,32.8c-2.3,2.8-4.5,5.8-7.1,8.4c-1.3,1.3-3.5,2.6-5,2.4c-2.9-0.4-5.3-1.8-5.6-5.7
		c-0.9-12.3-2.1-24.5-3.4-36.8C319.3,37.6,318,31.7,316.8,24.1z"/>
	<path class="st0" d="M507.4,207.9c0.4,0.6,2,1.9,2.4,3.5c1.6,6.3,2.9,12.6,4.1,19c0.2,1.3-0.8,2.8-1.3,4.2
		c-1.3-0.6-3.2-0.8-3.9-1.8c-2.1-2.7-4.4-3.6-7.7-3c-11.9,2.3-23.8,4.4-35.7,6.6c-3.2,0.6-5.3,1.9-5.7,5.7c-0.2,1.8-2.3,3.3-3.5,4.9
		c-1.3-1.5-3.3-2.9-3.8-4.7c-1.7-6.7-3.3-13.6-4.1-20.4c-0.3-2.1,1.7-4.5,2.6-6.8c1.8,1.4,4.2,2.6,5.2,4.4c1.7,3.2,3.6,4.1,7.1,3.5
		c11.7-2.2,23.6-3.7,35.2-6.6C501.6,215.7,504,211.2,507.4,207.9z"/>
	<path class="st0" d="M295.5,77.9c-6.7-0.8-12.1-1.2-17.4-2.2c-3.5-0.6-4.6-3.3-1.8-5.7c4.1-3.5,4.2-8.1,4.6-12.6
		c0.9-8.9,1.8-17.9,2.4-26.8c0.1-2.1-0.8-4.4-1.9-6.3c-2.4-4.4-1.6-6.3,3.4-6c4.4,0.2,8.9,1.1,13.2,2.3c3.6,1,4.3,4.2,1.2,6.2
		c-3.3,2.2-3.8,5.2-4.2,8.5c-1,8.3-2.3,16.5-2.9,24.8c-0.3,3.8,0.9,7.7,1.6,11.5C294.1,73.1,294.7,74.8,295.5,77.9z"/>
	<path class="st0" d="M233.9,340.7c-32.9,1.2-65.3-0.5-97.1,7c-4,0.9-7.2,0-8.7-3.8c-2-5.1-3.6-10.3-4.9-15.6
		c-0.2-1,1.3-3.2,2.4-3.5c6-1.8,12.1-4,18.2-4.5c18.9-1.5,37.9-2.6,56.8-3.4c11.3-0.5,22.6-0.1,34.4-0.1
		c0.6-32.1,3.3-62.9,17.2-91.5c-0.7-0.3-1.3-0.6-2-0.9c-1.9,2.1-4.2,4-5.5,6.5c-5.4,10.3-10.8,20.6-15.4,31.3
		c-1.9,4.4-1.8,9.8-2.4,14.7c-2.4,21.3-12.5,32.8-33.6,36c-11.4,1.8-23.3,2.4-34.8,1.7c-18.2-1-34.3-17.5-37.1-37.1
		c-3.1-21.8-2.2-43.5,4.5-64.7c1.7-5.3,4.4-9.5,9.4-12.3c24.8-13.9,50.1-14,75.7-2.8c7.6,3.3,9.3,10.8,10.8,18.1
		c0.4,1.8,0.6,3.6,0.8,5c9.5-12.2,19.1-24.4,28.7-36.7c-1.8-3.3-3.8-2.7-6.2-0.6c-6.1,5.4-12.9,9.4-21,10.9c-5.1,1-8.8-0.8-11.6-4.9
		c-2.8-4.1-1.3-7.6,1.6-10.8c6.2-7.2,12.3-14.4,18.7-21.5c9-10,13.2-22.1,16.4-34.8c0.8-3.2,2.8-6.5,5.1-8.8
		c4.4-4.2,12.3-4.9,16.8-1.8c5.2,3.6,7.7,9,6.2,15.2c-1.8,7.6-4.5,14.9-6.7,22.4c-0.7,2.5-1.7,5.2-1.4,7.7c0.7,5.3,4,7.2,10.6,6.8
		c27.6-1.9,55.1-3.9,82.7-5.6c6.9-0.4,14,0.2,20.9,0.9c8,0.9,14,8,13.7,15.3c-0.3,6-3.9,9.9-9.8,9.5c-12-0.6-23.9-2.4-35.9-2.4
		c-18.1-0.1-36.3,0.2-54.3,1.6c-7.1,0.5-14.1,3.8-20.8,6.6c-7.2,3.1-8.6,7.2-6.3,14.5c0.3,0.9,0.5,2,1,2.8c6.2,10.2,4.9,20.3,1,31
		c-11.3,31-13,63.3-11.5,96c0.8,18.1,1.5,36.3,2.5,54.4c0.4,7.3,1.7,14.5,2.5,21.8c0.3,2.8,0.6,5.7,0.3,8.5c-0.5,4.4-1.7,8.7-6.8,10
		c-6.2,1.6-11.4,0.3-14-4.7c-2.6-4.7-4.6-10-5.6-15.3c-3.8-20.8-5.4-41.9-5.1-63.1C234.1,344.3,234,342.9,233.9,340.7z M203,242.9
		c0-4.1,0.3-7.5-0.1-10.8c-1-11-5.6-15.7-16.6-16.9c-3.5-0.4-7-0.5-10.5-0.7c-21.2-1.4-33.3,10-32.1,31
		C163.3,244.7,182.8,243.8,203,242.9z M146.1,267.4c-0.6,12,6,21.6,17.1,23.6c6.6,1.2,13.5,1.2,20.2,1c14.6-0.5,23.2-12.2,20.1-27
		C184.2,260.6,165.2,264.9,146.1,267.4z"/>
	<path class="st0" d="M339.2,305.5c8.4-0.7,15.5-0.9,22.5-2.1c2.8-0.5,5.4-2.9,7.8-4.9c2.4-2,4-4.9,6.5-6.9
		c3.3-2.6,6.9-4.9,11.4-2.4c4,2.2,7.3,7.7,6.1,12.2c-4.5,16.5-9.4,32.9-14.6,49.2c-0.5,1.6-4.2,3.1-6.5,3.2
		c-7.6,0.4-15.3,0-22.9,0.1c-7.8,0.1-8.1,0.5-6.4,8c2.4,10.4,5.2,20.6,7.3,31c0.9,4.3,0.6,8.9,0.5,13.4c-0.1,3.8-2.6,5.6-6.3,5.6
		c-6.7,0.1-11.2-3.5-14.5-9c-6.4-10.8-9.5-22.6-12-34.7c-2.1-10.4-3.1-11.1-13.3-7.5c-4.4,1.5-8.5,3.8-12.7,5.7
		c-3.4,1.5-6.7,3-10.2,4.1c-6,1.9-9.7,0.6-12.1-3.7c-2.8-5.1-2.4-11.1,2-14.5c3.3-2.6,7.4-4.6,11.4-5.9c9.9-3.2,20-5.8,30.2-8.6
		c0-3.8,0-8.1,0-13.9c-6.5,1.8-12.2,3.2-17.8,5c-5.9,1.8-11.6,4-17.5,5.8c-4.2,1.3-8.3,1.5-10.5-3.7c-2.2-5.2-0.8-11,3.5-13.8
		c7.8-5,16.7-4.9,25.5-6c5.6-0.7,11.1-1.8,16.6-3c1.1-0.3,2-2.1,2.9-3.1c-1.4-0.6-2.7-1.7-4.1-1.7c-5,0-10,0.8-14.9,0.6
		c-4.1-0.1-8-1.5-9.1-6.3c-1.2-5.3,1.9-9,8-9.4c14.8-0.9,29.6-1.6,44.4-2.4c0.7,0,1.3-0.1,2,0c2.3,0.3,4.5,0.7,6.8,1.1
		c-0.5,2.7-0.3,5.8-1.6,8C345.7,298.3,342.7,301.3,339.2,305.5z M339.2,336.8c6.4-0.5,12.2-0.8,17.9-1.7c1.8-0.3,4-2.4,4.6-4.1
		c1.1-3,1-6.3,1.6-10.5c-8.7,0.8-16.4,1.5-24.1,2.3C339.2,327.6,339.2,331.9,339.2,336.8z"/>
	<path class="st0" d="M330,282.8c-10.5,0-21-0.2-31.4,0.1c-9.3,0.2-15.8-3.3-19.7-11.5c-4.3-8.9-3.1-16.2,3-23.5
		c6.1-7.3,14.3-9.4,23.1-9.8c18.6-0.9,37.2-1.9,55.8-2c8.9-0.1,17.9,1.6,26.7,2.8c2.3,0.3,4.9,1.7,6.4,3.4c6.4,6.9,7.9,15.4,5,24.1
		c-2.8,8.3-9.3,12.9-18.1,13.4c-16.9,1-33.9,1.7-50.8,2.6C330,282.6,330,282.7,330,282.8z M376.6,259c-0.2-0.6-0.4-1.3-0.6-1.9
		c-3.9-0.4-7.8-1.2-11.7-1c-20,0.5-39.9,1.2-59.9,2c-3.1,0.1-8.5-1-8.3,3.8c0.1,5,5.7,3.9,8.9,3.7c21.8-1,43.5-2.3,65.3-3.7
		C372.5,261.8,374.5,260,376.6,259z"/>
	<path class="st0" d="M332.9,232.7c-14.3-0.6-28.6-0.9-42.8-1.8c-2.8-0.2-6.1-2-8.1-4.1c-8.2-8.8-6.3-25.5,4.1-31.4
		c5.3-3,11.8-4.7,17.9-5.1c18.9-1.2,37.9-1.6,56.8-2.1c8.9-0.2,17.5,1.1,25.7,5c6.9,3.3,10.3,8.6,10.5,16.2
		c0.2,7.9-1.9,14.9-10,17.8c-6.3,2.3-13,4.2-19.7,4.6c-11.4,0.7-22.9,0.2-34.4,0.2C332.9,232.2,332.9,232.4,332.9,232.7z
		 M375.8,213.6c-0.5-6-2.7-7.8-7.3-7.7c-13.1,0.3-26.3,0.1-39.4,0.4c-9.1,0.2-18.3,0.7-27.4,1.3c-3.3,0.2-6.2,2.3-5.1,5.8
		c0.5,1.6,4,3.2,6.1,3.2c18.3-0.1,36.6-0.3,54.8-0.9C363.5,215.6,369.5,214.4,375.8,213.6z"/>
</g>
</svg>
